[center][img]http://img442.imageshack.us/img442/8031/310toyumar1artworkpic.jpg[/img]


[img]http://www.shotpix.com/images/51932040036604500224.jpg[/img]

IMDB Link: [url="http://www.imdb.com/title/tt0381849/"][/url]

IMDB Rating:8.0/10.0

GENRE: Action | Crime | Drama


[img]http://www.shotpix.com/images/19842441914057550137.jpg[/img]

Complete name : 3;10 to Yuma
Format : Matroska
Format version : Version 4 / Version 2
File size : 936 MiB
Duration : 2h 2mn
Overall bit rate : 1 069 Kbps
Movie name : 3:10 to Yuma (2007) 720p BRRip X264 Hindi R@J@T
Encoded date : UTC 2013-03-14 04:21:07
Writing application : mkvmerge v6.0.0 ('Coming Up For Air') built on Jan 20 2013 09:52:00
Writing library : libebml v1.3.0 + libmatroska v1.4.0


[img]http://www.shotpix.com/images/56321098596403620846.jpg[/img]

ID : 1
Format : AVC
Format/Info : Advanced Video Codec
Format profile : High@L4.1
Format settings, CABAC : Yes
Format settings, ReFrames : 4 frames
Codec ID : V_MPEG4/ISO/AVC
Duration : 2h 2mn
Bit rate : 876 Kbps
Width : 1 280 pixels
Height : 528 pixels
Display aspect ratio : 2.40:1
Frame rate mode : Constant
Frame rate : 23.976 fps
Color space : YUV
Chroma subsampling : 4:2:0
Bit depth : 8 bits
Scan type : Progressive
Bits/(Pixel*Frame) : 0.054
Stream size : 750 MiB (80%)
Title : R@J@T
Writing library : x264 core 129 r2245 bc13772
Language : English
Default : Yes
Forced : No


[img]http://www.shotpix.com/images/93770804060181909706.jpg[/img]

ID : 2
Format : AC-3
Format/Info : Audio Coding 3
Mode extension : CM (complete main)
Format settings, Endianness : Big
Codec ID : A_AC3
Duration : 2h 2mn
Bit rate mode : Constant
Bit rate : 192 Kbps
Channel(s) : 2 channels
Channel positions : Front: L R
Sampling rate : 48.0 KHz
Bit depth : 16 bits
Compression mode : Lossy
Delay relative to video : 1s 774ms
Stream size : 168 MiB (18%)
Title : R@J@T
Language : Hindi
Default : Yes
Forced : Yes


[img]http://www.shotpix.com/images/19178588247265563614.png[/img]

[img]http://img692.imageshack.us/img692/3083/vlcsnap2013031419h04m02.png[/img]
[img]http://img541.imageshack.us/img541/1197/vlcsnap2013031419h04m12.png[/img]
[img]http://img69.imageshack.us/img69/1850/vlcsnap2013031419h04m29.png[/img]
[img]http://img833.imageshack.us/img833/8345/vlcsnap2013031419h03m17.png[/img]
[img]http://img689.imageshack.us/img689/4865/vlcsnap2013031419h03m30.png[/img]
[img]http://img594.imageshack.us/img594/9145/vlcsnap2013031419h03m38.png[/img]


SPECIAL NOTE: CHECK SCREEN SHOTS AND SAMPLE BEFORE DOWNLOAD FOR SATISFACTION.


[img]http://www.shotpix.com/images/79493232037148808289.gif[/img]

IF YOU LIKE MY WORK PLEASE SEED THE TORRENT


[img]http://www.shotpix.com/images/68649387423808507639.jpg[/img]

R@J@T[/center]



